<svg xmlns="http://www.w3.org/2000/svg" width="520" height="640" viewBox="0 0 520 640" role="img" aria-labelledby="title desc">
  <title id="title">Stylized portrait</title>
  <desc id="desc">A warm editorial portrait illustration for a professional profile.</desc>
  <defs>
    <linearGradient id="skin" x1="130" y1="140" x2="380" y2="460" gradientUnits="userSpaceOnUse">
      <stop offset="0" stop-color="#7f442c"/>
      <stop offset="1" stop-color="#4f2b20"/>
    </linearGradient>
    <linearGradient id="dress" x1="90" y1="360" x2="430" y2="640" gradientUnits="userSpaceOnUse">
      <stop offset="0" stop-color="#f4c466"/>
      <stop offset="0.48" stop-color="#d97347"/>
      <stop offset="1" stop-color="#174f43"/>
    </linearGradient>
    <radialGradient id="halo" cx="50%" cy="33%" r="56%">
      <stop offset="0" stop-color="#fffaf0" stop-opacity=".88"/>
      <stop offset=".58" stop-color="#e7b6a7" stop-opacity=".32"/>
      <stop offset="1" stop-color="#174f43" stop-opacity="0"/>
    </radialGradient>
    <filter id="shadow" x="-20%" y="-20%" width="140%" height="150%">
      <feDropShadow dx="0" dy="24" stdDeviation="20" flood-color="#11110f" flood-opacity=".22"/>
    </filter>
  </defs>
  <rect width="520" height="640" rx="28" fill="url(#halo)"/>
  <g filter="url(#shadow)">
    <path d="M93 610c15-111 75-181 167-181s151 70 167 181H93z" fill="url(#dress)"/>
    <path d="M189 423c13 35 40 58 72 58 31 0 58-23 71-58-23 15-46 22-71 22s-49-7-72-22z" fill="#f0b176"/>
    <path d="M133 222c2-96 56-158 130-158 78 0 130 64 127 159-4 117-55 191-130 191-76 0-124-76-127-192z" fill="url(#skin)"/>
    <path d="M134 231c-21-7-38 9-33 38 5 32 22 52 45 48l-12-86z" fill="#70402e"/>
    <path d="M388 231c22-7 38 9 34 38-5 32-23 52-46 48l12-86z" fill="#70402e"/>
    <path d="M121 249c-23-91 15-180 92-211 73-29 155-3 193 61 27 45 26 98 10 150-10-79-52-121-127-128-71-6-129 34-168 128z" fill="#171412"/>
    <path d="M156 180c-6 43-6 89 2 137-25-70-19-118 18-174l-20 37z" fill="#171412"/>
    <path d="M368 169c19 48 18 97-1 147 31-55 31-105 1-147z" fill="#171412"/>
    <path d="M194 260c18-13 39-13 58 0" fill="none" stroke="#241713" stroke-width="12" stroke-linecap="round"/>
    <path d="M274 260c18-13 39-13 58 0" fill="none" stroke="#241713" stroke-width="12" stroke-linecap="round"/>
    <path d="M262 281c-7 27-13 54-1 63 8 6 23 1 31-5" fill="none" stroke="#3b2119" stroke-width="10" stroke-linecap="round"/>
    <path d="M220 367c24 25 70 26 96 0" fill="none" stroke="#2d1814" stroke-width="12" stroke-linecap="round"/>
    <circle cx="220" cy="284" r="7" fill="#11110f"/>
    <circle cx="307" cy="284" r="7" fill="#11110f"/>
    <path d="M158 488c48 47 154 58 223 0l18 122H139l19-122z" fill="#174f43" opacity=".92"/>
    <path d="M159 478c27 33 62 52 103 52 42 0 78-18 107-52" fill="none" stroke="#fffaf0" stroke-width="18" stroke-linecap="round"/>
    <path d="M171 519h184" stroke="#d69d31" stroke-width="10" stroke-linecap="round" opacity=".78"/>
  </g>
  <g opacity=".52">
    <circle cx="86" cy="86" r="16" fill="#d69d31"/>
    <circle cx="436" cy="128" r="10" fill="#fffaf0"/>
    <circle cx="426" cy="520" r="18" fill="#e7b6a7"/>
    <path d="M65 424c44-16 78-47 101-93" fill="none" stroke="#fffaf0" stroke-width="8" stroke-linecap="round"/>
  </g>
</svg>
